<svg width="24" height="24" viewBox="0 0 24 24" fill="none" xmlns="http://www.w3.org/2000/svg">
<path d="M20.9226 11.4098C21.0789 11.5663 21.1666 11.7786 21.1666 12C21.1666 12.2214 21.0789 12.4337 20.9226 12.5902L15.9226 17.599C15.7654 17.7511 15.5549 17.8352 15.3364 17.8333C15.1179 17.8314 14.9089 17.7436 14.7544 17.5888C14.5999 17.4341 14.5122 17.2247 14.5103 17.0058C14.5084 16.7869 14.5924 16.576 14.7442 16.4186L18.3218 12.8348L3.66663 12.8348C3.44562 12.8348 3.23365 12.7468 3.07737 12.5903C2.92109 12.4337 2.83329 12.2214 2.83329 12C2.83329 11.7786 2.92109 11.5663 3.07737 11.4097C3.23365 11.2532 3.44562 11.1652 3.66663 11.1652L18.3218 11.1652L14.7442 7.58141C14.5924 7.42397 14.5084 7.2131 14.5103 6.99422C14.5122 6.77533 14.5999 6.56596 14.7544 6.41118C14.9089 6.2564 15.1179 6.1686 15.3364 6.1667C15.5549 6.1648 15.7654 6.24894 15.9226 6.40101L20.9226 11.4098Z" fill="white"/>
</svg>
