<svg width="24" height="24" viewBox="0 0 24 24" fill="none" xmlns="http://www.w3.org/2000/svg">
<path d="M3.07737 12.5902C2.92114 12.4337 2.83337 12.2214 2.83337 12C2.83337 11.7786 2.92114 11.5663 3.07737 11.4098L8.07741 6.40101C8.23458 6.24894 8.44509 6.1648 8.66359 6.1667C8.88209 6.1686 9.0911 6.2564 9.24561 6.41118C9.40012 6.56595 9.48776 6.77533 9.48966 6.99421C9.49155 7.21309 9.40756 7.42397 9.25576 7.58141L5.67822 11.1652H20.3334C20.5544 11.1652 20.7663 11.2532 20.9226 11.4097C21.0789 11.5663 21.1667 11.7786 21.1667 12C21.1667 12.2214 21.0789 12.4337 20.9226 12.5903C20.7663 12.7468 20.5544 12.8348 20.3334 12.8348H5.67822L9.25576 16.4186C9.40756 16.576 9.49155 16.7869 9.48966 17.0058C9.48776 17.2247 9.40012 17.434 9.24561 17.5888C9.0911 17.7436 8.88209 17.8314 8.66359 17.8333C8.44509 17.8352 8.23458 17.7511 8.07741 17.599L3.07737 12.5902Z" fill="white"/>
</svg>
