<svg width="44" height="45" viewBox="0 0 44 45" fill="none" xmlns="http://www.w3.org/2000/svg">
<rect y="0.5" width="44" height="44" rx="6" fill="white" fill-opacity="0.25"/>
<path fill-rule="evenodd" clip-rule="evenodd" d="M22 13.75C17.1662 13.75 13.25 17.6625 13.25 22.4913C13.25 26.3538 15.7575 29.6288 19.2338 30.785C19.6713 30.865 19.8312 30.595 19.8312 30.3638C19.8312 30.1563 19.8238 29.6063 19.8188 28.8763C17.385 29.405 16.8725 27.705 16.8725 27.705C16.4738 26.695 15.9 26.4263 15.9 26.4263C15.1062 25.8838 15.96 25.895 15.96 25.895C16.8387 25.9575 17.3013 26.795 17.3013 26.795C18.0813 28.1325 19.3487 27.745 19.8475 27.5225C19.9262 26.9575 20.1525 26.5725 20.4025 26.3538C18.46 26.1338 16.4175 25.3838 16.4175 22.0338C16.4175 21.08 16.7588 20.2988 17.3175 19.6888C17.2275 19.4675 16.9275 18.5788 17.405 17.3763C17.405 17.3763 18.1375 17.14 19.81 18.2713C20.5238 18.0768 21.2602 17.9776 22 17.9763C22.7437 17.98 23.4925 18.0763 24.1912 18.2713C25.8612 17.14 26.595 17.375 26.595 17.375C27.0725 18.5788 26.7725 19.4675 26.6825 19.6875C27.2425 20.3 27.5825 21.08 27.5825 22.0338C27.5825 25.3913 25.535 26.1313 23.5863 26.3463C23.9 26.6163 24.18 27.15 24.18 27.9663C24.18 29.1338 24.1687 30.0763 24.1687 30.3638C24.1687 30.5975 24.3275 30.8688 24.7712 30.7838C26.5117 30.2034 28.0256 29.0903 29.0986 27.6021C30.1715 26.1139 30.7493 24.3259 30.75 22.4913C30.7487 20.1718 29.8261 17.9479 28.1852 16.3086C26.5443 14.6694 24.3194 13.749 22 13.75Z" fill="white"/>
</svg>
