<svg width="44" height="45" viewBox="0 0 44 45" fill="none" xmlns="http://www.w3.org/2000/svg">
<rect y="0.5" width="44" height="44" rx="6" fill="#00C853" fill-opacity="0.25"/>
<path d="M12.6043 17.3663C12.499 19.1996 12.8325 21.0224 13.5721 22.8348C14.3117 24.6471 15.3921 26.264 16.8133 27.6852C18.2346 29.1063 19.8513 30.1867 21.6637 30.9263C23.4761 31.666 25.2989 31.9893 27.1323 31.8961L27.0664 27.756C24.2984 27.756 21.9357 26.7773 19.9784 24.82C18.0211 22.8627 17.0425 20.5001 17.0425 17.7321L12.6043 17.3663Z" fill="url(#paint0_linear_7_60)"/>
<path d="M27.1352 31.9117C29.4979 31.9117 31.4132 29.9964 31.4132 27.6336C31.4132 25.2709 29.4979 23.3556 27.1352 23.3556C24.7724 23.3556 22.8571 25.2709 22.8571 27.6336C22.8571 29.9964 24.7724 31.9117 27.1352 31.9117Z" fill="url(#paint1_radial_7_60)"/>
<path d="M16.8674 21.6444C19.2301 21.6444 21.1455 19.729 21.1455 17.3663C21.1455 15.0036 19.2301 13.0883 16.8674 13.0883C14.5047 13.0883 12.5894 15.0036 12.5894 17.3663C12.5894 19.729 14.5047 21.6444 16.8674 21.6444Z" fill="url(#paint2_radial_7_60)"/>
<defs>
<linearGradient id="paint0_linear_7_60" x1="19.8588" y1="17.3663" x2="19.8588" y2="31.9117" gradientUnits="userSpaceOnUse">
<stop stop-color="#00EE7A"/>
<stop offset="1" stop-color="#00C853"/>
</linearGradient>
<radialGradient id="paint1_radial_7_60" cx="0" cy="0" r="1" gradientUnits="userSpaceOnUse" gradientTransform="translate(25.7691 25.211) rotate(78.4769) scale(6.83853 6.83853)">
<stop stop-color="#00EE7A"/>
<stop offset="1" stop-color="#00C853"/>
</radialGradient>
<radialGradient id="paint2_radial_7_60" cx="0" cy="0" r="1" gradientUnits="userSpaceOnUse" gradientTransform="translate(15.5013 14.9437) rotate(78.4769) scale(6.83853)">
<stop stop-color="#00EE7A"/>
<stop offset="1" stop-color="#00C853"/>
</radialGradient>
</defs>
</svg>
