<svg width="44" height="45" viewBox="0 0 44 45" fill="none" xmlns="http://www.w3.org/2000/svg">
<g clip-path="url(#clip0_7_50)">
<rect y="0.5" width="44" height="44" rx="6" fill="#1B92D1" fill-opacity="0.25"/>
<path d="M29.7446 14.9284C27.2838 15.9476 16.7322 20.3182 13.8168 21.5094C11.8616 22.2724 13.0062 22.9878 13.0062 22.9878C13.0062 22.9878 14.6752 23.56 16.106 23.9892C17.5366 24.4184 18.2996 23.9416 18.2996 23.9416L25.0236 19.4112C27.408 17.7898 26.8358 19.125 26.2634 19.6974C25.0236 20.9374 22.973 22.8924 21.2562 24.4662C20.4932 25.1338 20.8746 25.706 21.2086 25.9922C22.4484 27.0414 25.8344 29.1874 26.025 29.3304C27.0324 30.0436 29.014 31.0702 29.3154 28.9012L30.5076 21.4142C30.8892 18.8868 31.2706 16.55 31.3182 15.8824C31.4614 14.2608 29.7446 14.9284 29.7446 14.9284Z" fill="#1B92D1"/>
</g>
<defs>
<clipPath id="clip0_7_50">
<rect y="0.5" width="44" height="44" rx="6" fill="white"/>
</clipPath>
</defs>
</svg>
